# Blender 4.3.2
# www.blender.org
mtllib butterfly_right.mtl
o 平面.001
v 1.471177 -0.655657 0.023664
v 1.298494 -1.891382 -0.051283
v 0.005987 -0.005945 0.012955
v 1.372215 -0.391094 0.012955
v 2.469419 1.347848 0.012955
v 0.007292 0.004244 0.012955
v 1.078696 1.008677 0.000000
v 0.404088 -1.301533 0.000000
vn 0.0321 0.0560 -0.9979
vn -0.0000 -0.0000 -1.0000
vn 0.0168 -0.0308 -0.9994
vn -0.0635 -0.0095 -0.9979
vt 1.000000 0.000000
vt 0.000000 1.000000
vt 0.000000 0.000000
s 0
f 2/1/1 3/2/1 1/3/1
f 5/1/2 4/3/2 6/2/2
f 6/2/3 7/2/3 5/1/3
f 3/2/4 2/1/4 8/2/4
