# Blender 4.3.2
# www.blender.org
mtllib spider_walk_grid.mtl
o グリッド
v -9.215887 0.001029 10.058321
v -8.648158 -0.005227 9.921412
v -5.267289 0.001821 9.770607
v -3.579259 -0.000385 9.319646
v -2.370592 -0.005696 10.494568
v -0.623992 0.003997 9.755596
v 1.576067 0.005498 10.346545
v 4.545796 0.005212 9.816347
v 5.443038 0.004080 10.362991
v 8.406913 0.006319 9.814149
v 10.086974 -0.008544 9.876391
v -8.932823 0.007287 7.762451
v -7.081203 0.002015 8.760330
v -4.905869 -0.003046 7.250289
v -2.298476 0.001536 7.745305
v -0.467213 0.004396 7.690173
v 1.077725 0.005965 7.517349
v 2.744596 0.002667 8.703671
v 4.650900 0.005862 8.394888
v 7.548029 0.004807 7.802937
v 8.462993 -0.006823 8.045246
v 10.817760 0.007246 7.778296
v -9.729990 -0.004308 6.654376
v -7.339890 0.004138 6.034627
v -6.541910 0.005077 5.771218
v -3.602214 0.004125 6.529022
v -2.054250 -0.008503 5.838275
v -0.068612 0.006977 6.325788
v 2.609110 -0.004479 6.342616
v 3.863551 0.003409 6.690893
v 5.680793 -0.006909 6.381934
v 7.484850 0.005549 5.830649
v 10.747988 -0.003390 6.018236
v -9.018029 0.007313 3.751050
v -6.629915 0.006512 4.118695
v -4.948035 -0.008616 3.930036
v -3.730333 -0.001884 3.636587
v -1.344880 -0.006976 4.375362
v 1.061314 0.000619 4.787364
v 3.751614 -0.001427 4.139165
v 5.086141 0.007634 3.994206
v 6.196856 -0.002212 4.123112
v 9.038056 -0.000935 4.795818
v 11.463223 0.005127 4.310929
v -9.561061 -0.003840 1.416579
v -8.088223 -0.007338 1.568873
v -6.266525 -0.006411 1.514947
v -4.019501 -0.007119 1.529445
v -1.406991 0.000333 1.468976
v -0.497659 0.003323 2.504568
v 1.621905 -0.004985 2.551905
v 3.321790 0.003828 1.942558
v 6.146808 -0.006568 1.483436
v 7.476810 -0.003062 2.550607
v 9.685494 -0.002917 2.696328
v -8.439034 -0.000350 0.538165
v -7.558525 -0.002028 -0.582143
v -4.669483 -0.007757 -0.083042
v -3.608272 0.001070 0.532525
v -1.633106 -0.000694 0.526147
v 0.369265 0.001469 0.493768
v 2.981606 0.001972 -0.763219
v 4.914011 0.007500 0.176259
v 6.823674 -0.001255 -0.783068
v 8.954575 -0.001485 -0.793904
v 10.589865 0.001886 -0.665360
v -9.698914 -0.007624 -1.745065
v -7.512324 -0.001795 -2.621167
v -6.652888 0.003772 -1.796194
v -3.657149 0.000910 -1.290095
v -1.993643 -0.008365 -2.223408
v -0.367868 0.003002 -1.376209
v 2.178970 -0.008468 -2.048507
v 3.337937 -0.002438 -2.406702
v 5.701208 0.006457 -2.304570
v 8.287842 0.006773 -2.237925
v 10.708807 0.001579 -1.688352
v -9.598558 -0.002250 -3.463291
v -6.300286 -0.000082 -3.676289
v -5.487189 0.005763 -3.753344
v -2.684834 -0.006836 -4.370092
v -1.560378 -0.006557 -3.904166
v 0.357353 0.003407 -4.348876
v 2.373834 0.004081 -3.704272
v 4.224000 0.001314 -3.767717
v 7.042860 0.004457 -4.634417
v 9.496429 -0.006650 -4.028193
v 10.456091 0.002254 -3.447318
v -10.059424 0.004467 -5.364812
v -7.854145 0.007215 -6.235216
v -5.918962 0.006409 -5.573604
v -3.351956 0.003356 -5.717463
v -1.367751 -0.003827 -6.366224
v 0.190705 0.007251 -5.812972
v 1.387883 0.000674 -6.502538
v 4.194305 -0.001907 -6.763555
v 6.342140 -0.000221 -5.277312
v 8.776129 -0.001031 -6.186510
v 10.344993 0.004808 -5.495196
v -9.755982 -0.003581 -8.151816
v -6.799198 -0.004648 -7.350682
v -5.631096 -0.005576 -8.182712
v -2.422550 0.000422 -8.512059
v -0.563062 -0.006708 -8.230628
v 0.631323 0.004331 -7.447274
v 3.047736 -0.006371 -8.551910
v 4.769570 -0.007990 -8.254591
v 6.497810 0.005965 -8.149849
v 8.301699 -0.003031 -8.364523
v 11.529858 0.001975 -8.517813
v -9.769480 -0.008192 -10.149857
v -7.268194 -0.003464 -10.141842
v -5.957618 0.007710 -9.991911
v -3.975635 0.006701 -10.385703
v -2.335839 0.006954 -10.036680
v -0.758992 -0.003024 -10.051471
v 2.364362 -0.006376 -10.421265
v 4.011745 0.000812 -9.210133
v 5.977401 -0.007945 -9.667441
v 7.570023 0.001583 -10.643805
v 10.708184 -0.001878 -9.653554
vn 0.0028 1.0000 0.0054
vn -0.0002 1.0000 0.0005
vn -0.0005 1.0000 -0.0009
vn -0.0002 1.0000 0.0026
vn -0.0034 1.0000 -0.0001
vn 0.0004 1.0000 0.0001
vn -0.0008 1.0000 -0.0010
vn 0.0006 1.0000 0.0007
vn 0.0023 1.0000 -0.0017
vn 0.0002 1.0000 0.0007
vn -0.0005 1.0000 -0.0023
vn 0.0022 1.0000 0.0014
vn -0.0021 1.0000 0.0062
vn 0.0018 1.0000 -0.0050
vn -0.0049 1.0000 0.0005
vn 0.0043 1.0000 -0.0033
vn -0.0035 1.0000 -0.0016
vn 0.0013 1.0000 -0.0057
vn -0.0003 1.0000 0.0004
vn -0.0009 1.0000 0.0007
vn -0.0015 1.0000 0.0025
vn 0.0058 1.0000 0.0006
vn -0.0009 1.0000 -0.0044
vn 0.0045 1.0000 -0.0004
vn -0.0044 1.0000 -0.0043
vn 0.0026 1.0000 0.0007
vn -0.0064 1.0000 -0.0016
vn 0.0072 1.0000 0.0043
vn -0.0029 1.0000 -0.0024
vn 0.0006 1.0000 0.0012
vn 0.0019 1.0000 -0.0059
vn 0.0037 1.0000 -0.0044
vn -0.0017 1.0000 -0.0001
vn -0.0005 1.0000 0.0005
vn -0.0047 1.0000 0.0034
vn 0.0019 1.0000 -0.0020
vn -0.0050 1.0000 0.0034
vn 0.0048 1.0000 -0.0036
vn -0.0007 1.0000 -0.0011
vn -0.0014 1.0000 -0.0014
vn 0.0044 1.0000 0.0053
vn 0.0009 1.0000 0.0016
vn -0.0026 1.0000 0.0006
vn -0.0012 1.0000 0.0036
vn -0.0013 1.0000 -0.0013
vn 0.0021 1.0000 0.0018
vn -0.0039 1.0000 -0.0002
vn 0.0057 1.0000 0.0054
vn -0.0012 1.0000 0.0008
vn -0.0010 1.0000 0.0006
vn -0.0020 1.0000 -0.0011
vn -0.0013 1.0000 0.0038
vn -0.0028 1.0000 0.0048
vn 0.0025 1.0000 -0.0019
vn -0.0036 1.0000 -0.0005
vn 0.0009 1.0000 -0.0033
vn -0.0031 1.0000 -0.0034
vn -0.0001 1.0000 -0.0005
vn -0.0001 1.0000 0.0054
vn -0.0001 1.0000 0.0032
vn -0.0010 1.0000 0.0021
vn -0.0054 1.0000 -0.0031
vn 0.0027 1.0000 -0.0000
vn 0.0032 1.0000 -0.0003
vn -0.0059 1.0000 -0.0010
vn 0.0024 1.0000 0.0033
vn -0.0003 1.0000 0.0053
vn -0.0025 1.0000 -0.0010
vn 0.0024 1.0000 -0.0022
vn 0.0001 1.0000 -0.0036
vn -0.0003 1.0000 0.0033
vn -0.0025 1.0000 0.0029
vn 0.0032 1.0000 0.0023
vn 0.0024 1.0000 0.0031
vn -0.0061 1.0000 0.0016
vn 0.0018 1.0000 -0.0004
vn 0.0011 1.0000 -0.0013
vn -0.0007 1.0000 -0.0020
vn 0.0024 1.0000 -0.0009
vn -0.0076 1.0000 0.0034
vn -0.0004 1.0000 -0.0052
vn 0.0002 1.0000 -0.0063
vn -0.0007 1.0000 -0.0029
vn 0.0037 1.0000 0.0001
vn -0.0062 1.0000 -0.0039
vn 0.0048 1.0000 -0.0000
vn 0.0010 1.0000 -0.0031
vn -0.0038 1.0000 -0.0006
vn 0.0025 1.0000 0.0007
vn -0.0021 1.0000 -0.0012
vn -0.0006 1.0000 -0.0007
vn -0.0031 1.0000 0.0037
vn -0.0002 1.0000 0.0054
vn 0.0012 1.0000 0.0044
vn 0.0019 1.0000 -0.0025
vn -0.0039 1.0000 0.0051
vn -0.0015 1.0000 -0.0013
vn -0.0009 1.0000 -0.0021
vt 0.000000 0.000000
vt 0.100000 0.000000
vt 0.100000 0.100000
vt 0.000000 0.100000
vt 0.200000 0.000000
vt 0.200000 0.100000
vt 0.300000 0.000000
vt 0.300000 0.100000
vt 0.200000 0.100000
vt 0.400000 0.000000
vt 0.400000 0.100000
vt 0.500000 0.000000
vt 0.500000 0.100000
vt 0.600000 0.000000
vt 0.600000 0.100000
vt 0.700000 0.000000
vt 0.700000 0.100000
vt 0.800000 0.000000
vt 0.800000 0.100000
vt 0.900000 0.000000
vt 0.900000 0.100000
vt 1.000000 0.000000
vt 1.000000 0.100000
vt 0.100000 0.200000
vt 0.000000 0.200000
vt 0.200000 0.200000
vt 0.300000 0.200000
vt 0.200000 0.200000
vt 0.400000 0.200000
vt 0.500000 0.200000
vt 0.600000 0.200000
vt 0.700000 0.200000
vt 0.800000 0.200000
vt 0.900000 0.200000
vt 1.000000 0.200000
vt 0.000000 0.200000
vt 0.100000 0.200000
vt 0.100000 0.300000
vt 0.000000 0.300000
vt 0.200000 0.200000
vt 0.200000 0.300000
vt 0.300000 0.200000
vt 0.300000 0.300000
vt 0.200000 0.300000
vt 0.400000 0.200000
vt 0.400000 0.300000
vt 0.500000 0.200000
vt 0.500000 0.300000
vt 0.600000 0.200000
vt 0.600000 0.300000
vt 0.700000 0.200000
vt 0.700000 0.300000
vt 0.800000 0.200000
vt 0.800000 0.300000
vt 0.900000 0.200000
vt 0.900000 0.300000
vt 1.000000 0.200000
vt 1.000000 0.300000
vt 0.100000 0.400000
vt 0.000000 0.400000
vt 0.200000 0.400000
vt 0.300000 0.400000
vt 0.200000 0.400000
vt 0.400000 0.400000
vt 0.500000 0.400000
vt 0.600000 0.400000
vt 0.700000 0.400000
vt 0.800000 0.400000
vt 0.900000 0.400000
vt 1.000000 0.400000
vt 0.100000 0.500000
vt 0.000000 0.500000
vt 0.200000 0.500000
vt 0.300000 0.500000
vt 0.200000 0.500000
vt 0.400000 0.500000
vt 0.500000 0.500000
vt 0.600000 0.500000
vt 0.700000 0.500000
vt 0.800000 0.500000
vt 0.900000 0.500000
vt 1.000000 0.500000
vt 0.100000 0.600000
vt 0.000000 0.600000
vt 0.200000 0.600000
vt 0.300000 0.600000
vt 0.200000 0.600000
vt 0.400000 0.600000
vt 0.500000 0.600000
vt 0.600000 0.600000
vt 0.700000 0.600000
vt 0.800000 0.600000
vt 0.900000 0.600000
vt 1.000000 0.600000
vt 0.100000 0.700000
vt 0.000000 0.700000
vt 0.200000 0.700000
vt 0.300000 0.700000
vt 0.200000 0.700000
vt 0.400000 0.700000
vt 0.500000 0.700000
vt 0.600000 0.700000
vt 0.700000 0.700000
vt 0.800000 0.700000
vt 0.900000 0.700000
vt 1.000000 0.700000
vt 0.100000 0.800000
vt 0.000000 0.800000
vt 0.200000 0.800000
vt 0.300000 0.800000
vt 0.200000 0.800000
vt 0.400000 0.800000
vt 0.500000 0.800000
vt 0.600000 0.800000
vt 0.700000 0.800000
vt 0.800000 0.800000
vt 0.900000 0.800000
vt 1.000000 0.800000
vt 0.100000 0.900000
vt 0.000000 0.900000
vt 0.200000 0.900000
vt 0.300000 0.900000
vt 0.200000 0.900000
vt 0.400000 0.900000
vt 0.500000 0.900000
vt 0.600000 0.900000
vt 0.700000 0.900000
vt 0.800000 0.900000
vt 0.900000 0.900000
vt 1.000000 0.900000
vt 0.100000 1.000000
vt 0.000000 1.000000
vt 0.200000 1.000000
vt 0.300000 1.000000
vt 0.200000 1.000000
vt 0.400000 1.000000
vt 0.500000 1.000000
vt 0.600000 1.000000
vt 0.700000 1.000000
vt 0.800000 1.000000
vt 0.900000 1.000000
vt 1.000000 1.000000
s 0
f 1/1/1 2/2/1 13/3/1 12/4/1
f 2/2/2 3/5/2 14/6/2 13/3/2
f 3/5/3 4/7/3 15/8/3 14/9/3
f 4/7/4 5/10/4 16/11/4 15/8/4
f 5/10/5 6/12/5 17/13/5 16/11/5
f 6/12/6 7/14/6 18/15/6 17/13/6
f 7/14/7 8/16/7 19/17/7 18/15/7
f 8/16/8 9/18/8 20/19/8 19/17/8
f 9/18/9 10/20/9 21/21/9 20/19/9
f 10/20/10 11/22/10 22/23/10 21/21/10
f 12/4/11 13/3/11 24/24/11 23/25/11
f 13/3/12 14/6/12 25/26/12 24/24/12
f 14/6/13 15/8/13 26/27/13 25/28/13
f 15/8/14 16/11/14 27/29/14 26/27/14
f 16/11/15 17/13/15 28/30/15 27/29/15
f 17/13/16 18/15/16 29/31/16 28/30/16
f 18/15/17 19/17/17 30/32/17 29/31/17
f 19/17/18 20/19/18 31/33/18 30/32/18
f 20/19/19 21/21/19 32/34/19 31/33/19
f 21/21/20 22/23/20 33/35/20 32/34/20
f 23/36/21 24/37/21 35/38/21 34/39/21
f 24/37/22 25/40/22 36/41/22 35/38/22
f 25/40/23 26/42/23 37/43/23 36/44/23
f 26/42/24 27/45/24 38/46/24 37/43/24
f 27/45/25 28/47/25 39/48/25 38/46/25
f 28/47/26 29/49/26 40/50/26 39/48/26
f 29/49/27 30/51/27 41/52/27 40/50/27
f 30/51/28 31/53/28 42/54/28 41/52/28
f 31/53/29 32/55/29 43/56/29 42/54/29
f 32/55/30 33/57/30 44/58/30 43/56/30
f 34/39/31 35/38/31 46/59/31 45/60/31
f 35/38/32 36/41/32 47/61/32 46/59/32
f 36/41/33 37/43/33 48/62/33 47/63/33
f 37/43/34 38/46/34 49/64/34 48/62/34
f 38/46/35 39/48/35 50/65/35 49/64/35
f 39/48/36 40/50/36 51/66/36 50/65/36
f 40/50/37 41/52/37 52/67/37 51/66/37
f 41/52/38 42/54/38 53/68/38 52/67/38
f 42/54/39 43/56/39 54/69/39 53/68/39
f 43/56/40 44/58/40 55/70/40 54/69/40
f 45/60/41 46/59/41 57/71/41 56/72/41
f 46/59/42 47/61/42 58/73/42 57/71/42
f 47/61/43 48/62/43 59/74/43 58/75/43
f 48/62/44 49/64/44 60/76/44 59/74/44
f 49/64/45 50/65/45 61/77/45 60/76/45
f 50/65/46 51/66/46 62/78/46 61/77/46
f 51/66/47 52/67/47 63/79/47 62/78/47
f 52/67/48 53/68/48 64/80/48 63/79/48
f 53/68/49 54/69/49 65/81/49 64/80/49
f 54/69/50 55/70/50 66/82/50 65/81/50
f 56/72/51 57/71/51 68/83/51 67/84/51
f 57/71/52 58/73/52 69/85/52 68/83/52
f 58/73/53 59/74/53 70/86/53 69/87/53
f 59/74/54 60/76/54 71/88/54 70/86/54
f 60/76/55 61/77/55 72/89/55 71/88/55
f 61/77/56 62/78/56 73/90/56 72/89/56
f 62/78/57 63/79/57 74/91/57 73/90/57
f 63/79/58 64/80/58 75/92/58 74/91/58
f 64/80/59 65/81/59 76/93/59 75/92/59
f 65/81/60 66/82/60 77/94/60 76/93/60
f 67/84/61 68/83/61 79/95/61 78/96/61
f 68/83/62 69/85/62 80/97/62 79/95/62
f 69/85/63 70/86/63 81/98/63 80/99/63
f 70/86/64 71/88/64 82/100/64 81/98/64
f 71/88/65 72/89/65 83/101/65 82/100/65
f 72/89/66 73/90/66 84/102/66 83/101/66
f 73/90/67 74/91/67 85/103/67 84/102/67
f 74/91/68 75/92/68 86/104/68 85/103/68
f 75/92/69 76/93/69 87/105/69 86/104/69
f 76/93/70 77/94/70 88/106/70 87/105/70
f 78/96/71 79/95/71 90/107/71 89/108/71
f 79/95/72 80/97/72 91/109/72 90/107/72
f 80/97/73 81/98/73 92/110/73 91/111/73
f 81/98/74 82/100/74 93/112/74 92/110/74
f 82/100/75 83/101/75 94/113/75 93/112/75
f 83/101/76 84/102/76 95/114/76 94/113/76
f 84/102/77 85/103/77 96/115/77 95/114/77
f 85/103/78 86/104/78 97/116/78 96/115/78
f 86/104/79 87/105/79 98/117/79 97/116/79
f 87/105/80 88/106/80 99/118/80 98/117/80
f 89/108/81 90/107/81 101/119/81 100/120/81
f 90/107/82 91/109/82 102/121/82 101/119/82
f 91/109/83 92/110/83 103/122/83 102/123/83
f 92/110/84 93/112/84 104/124/84 103/122/84
f 93/112/85 94/113/85 105/125/85 104/124/85
f 94/113/86 95/114/86 106/126/86 105/125/86
f 95/114/87 96/115/87 107/127/87 106/126/87
f 96/115/88 97/116/88 108/128/88 107/127/88
f 97/116/89 98/117/89 109/129/89 108/128/89
f 98/117/90 99/118/90 110/130/90 109/129/90
f 100/120/91 101/119/91 112/131/91 111/132/91
f 101/119/92 102/121/92 113/133/92 112/131/92
f 102/121/93 103/122/93 114/134/93 113/135/93
f 103/122/94 104/124/94 115/136/94 114/134/94
f 104/124/61 105/125/61 116/137/61 115/136/61
f 105/125/95 106/126/95 117/138/95 116/137/95
f 106/126/96 107/127/96 118/139/96 117/138/96
f 107/127/97 108/128/97 119/140/97 118/139/97
f 108/128/98 109/129/98 120/141/98 119/140/98
f 109/129/19 110/130/19 121/142/19 120/141/19
